<mxfile host="app.diagrams.net" modified="2022-03-28T07:32:01.961Z" agent="5.0 (X11; Linux x86_64) AppleWebKit/537.36 (KHTML, like Gecko) Chrome/98.0.4758.102 Safari/537.36" etag="IFeBYhW3LgfbUx4TsIjm" version="17.1.2" type="github">
  <diagram id="DZgxZvmLrZTOhhlUp9DQ" name="Page-1">
    <mxGraphModel dx="1635" dy="2036" grid="1" gridSize="10" guides="1" tooltips="1" connect="1" arrows="1" fold="1" page="1" pageScale="1" pageWidth="827" pageHeight="1169" math="0" shadow="0">
      <root>
        <mxCell id="0" />
        <mxCell id="1" parent="0" />
        <mxCell id="25u9K3X81Mbi-f4htGCc-3" style="edgeStyle=orthogonalEdgeStyle;rounded=0;orthogonalLoop=1;jettySize=auto;html=1;exitX=1;exitY=0.75;exitDx=0;exitDy=0;entryX=0.13;entryY=0.77;entryDx=0;entryDy=0;entryPerimeter=0;" edge="1" parent="1" source="25u9K3X81Mbi-f4htGCc-1" target="lT_rciikWXpVZR0L5w_a-26">
          <mxGeometry relative="1" as="geometry">
            <Array as="points">
              <mxPoint x="110" y="480" />
              <mxPoint x="502" y="480" />
            </Array>
          </mxGeometry>
        </mxCell>
        <mxCell id="lT_rciikWXpVZR0L5w_a-5" style="edgeStyle=orthogonalEdgeStyle;rounded=0;orthogonalLoop=1;jettySize=auto;html=1;exitX=0;exitY=0;exitDx=300;exitDy=125;entryX=0;entryY=0.5;entryDx=0;entryDy=0;curved=1;exitPerimeter=0;" parent="1" source="lT_rciikWXpVZR0L5w_a-31" target="lT_rciikWXpVZR0L5w_a-2" edge="1">
          <mxGeometry relative="1" as="geometry">
            <mxPoint x="300" y="155" as="sourcePoint" />
          </mxGeometry>
        </mxCell>
        <mxCell id="lT_rciikWXpVZR0L5w_a-6" style="edgeStyle=orthogonalEdgeStyle;rounded=0;orthogonalLoop=1;jettySize=auto;html=1;exitX=1;exitY=0.5;exitDx=0;exitDy=0;entryX=0;entryY=0.5;entryDx=0;entryDy=0;curved=1;" parent="1" source="lT_rciikWXpVZR0L5w_a-2" target="lT_rciikWXpVZR0L5w_a-7" edge="1">
          <mxGeometry relative="1" as="geometry">
            <mxPoint x="500" y="120" as="targetPoint" />
          </mxGeometry>
        </mxCell>
        <mxCell id="lT_rciikWXpVZR0L5w_a-2" value="&amp;nbsp;Trek to mountain&amp;nbsp;" style="whiteSpace=wrap;html=1;" parent="1" vertex="1">
          <mxGeometry x="340" y="90" width="120" height="60" as="geometry" />
        </mxCell>
        <mxCell id="lT_rciikWXpVZR0L5w_a-18" style="edgeStyle=orthogonalEdgeStyle;curved=1;rounded=0;orthogonalLoop=1;jettySize=auto;html=1;exitX=0.5;exitY=0;exitDx=0;exitDy=0;entryX=0;entryY=0.5;entryDx=0;entryDy=0;" parent="1" source="lT_rciikWXpVZR0L5w_a-3" target="lT_rciikWXpVZR0L5w_a-17" edge="1">
          <mxGeometry relative="1" as="geometry" />
        </mxCell>
        <mxCell id="lT_rciikWXpVZR0L5w_a-20" style="edgeStyle=orthogonalEdgeStyle;curved=1;rounded=0;orthogonalLoop=1;jettySize=auto;html=1;exitX=1;exitY=0.5;exitDx=0;exitDy=0;entryX=0.25;entryY=0;entryDx=0;entryDy=0;" parent="1" source="lT_rciikWXpVZR0L5w_a-3" target="lT_rciikWXpVZR0L5w_a-19" edge="1">
          <mxGeometry relative="1" as="geometry" />
        </mxCell>
        <mxCell id="lT_rciikWXpVZR0L5w_a-3" value="grass and rocky mound- there are 4-5 rock piles against the sides" style="whiteSpace=wrap;html=1;" parent="1" vertex="1">
          <mxGeometry x="530" y="-20" width="140" height="80" as="geometry" />
        </mxCell>
        <mxCell id="lT_rciikWXpVZR0L5w_a-25" style="edgeStyle=orthogonalEdgeStyle;curved=1;rounded=0;orthogonalLoop=1;jettySize=auto;html=1;exitX=0.5;exitY=1;exitDx=0;exitDy=0;entryX=0.4;entryY=0.1;entryDx=0;entryDy=0;entryPerimeter=0;" parent="1" source="lT_rciikWXpVZR0L5w_a-4" target="lT_rciikWXpVZR0L5w_a-26" edge="1">
          <mxGeometry relative="1" as="geometry">
            <mxPoint x="585" y="320" as="targetPoint" />
          </mxGeometry>
        </mxCell>
        <mxCell id="lT_rciikWXpVZR0L5w_a-4" value="Some very old gravestone heads along the side and the top" style="whiteSpace=wrap;html=1;" parent="1" vertex="1">
          <mxGeometry x="510" y="200" width="150" height="80" as="geometry" />
        </mxCell>
        <mxCell id="lT_rciikWXpVZR0L5w_a-11" style="edgeStyle=orthogonalEdgeStyle;rounded=0;orthogonalLoop=1;jettySize=auto;html=1;entryX=0.5;entryY=1;entryDx=0;entryDy=0;" parent="1" source="lT_rciikWXpVZR0L5w_a-7" target="lT_rciikWXpVZR0L5w_a-3" edge="1">
          <mxGeometry relative="1" as="geometry" />
        </mxCell>
        <mxCell id="lT_rciikWXpVZR0L5w_a-12" style="edgeStyle=orthogonalEdgeStyle;rounded=0;orthogonalLoop=1;jettySize=auto;html=1;exitX=1;exitY=0.5;exitDx=0;exitDy=0;entryX=0;entryY=0.5;entryDx=0;entryDy=0;curved=1;" parent="1" source="lT_rciikWXpVZR0L5w_a-7" target="lT_rciikWXpVZR0L5w_a-8" edge="1">
          <mxGeometry relative="1" as="geometry" />
        </mxCell>
        <mxCell id="lT_rciikWXpVZR0L5w_a-13" style="edgeStyle=orthogonalEdgeStyle;curved=1;rounded=0;orthogonalLoop=1;jettySize=auto;html=1;exitX=0.5;exitY=1;exitDx=0;exitDy=0;" parent="1" source="lT_rciikWXpVZR0L5w_a-7" target="lT_rciikWXpVZR0L5w_a-9" edge="1">
          <mxGeometry relative="1" as="geometry" />
        </mxCell>
        <mxCell id="lT_rciikWXpVZR0L5w_a-14" style="edgeStyle=orthogonalEdgeStyle;curved=1;rounded=0;orthogonalLoop=1;jettySize=auto;html=1;exitX=0.5;exitY=1;exitDx=0;exitDy=0;entryX=0.5;entryY=0;entryDx=0;entryDy=0;" parent="1" source="lT_rciikWXpVZR0L5w_a-7" target="lT_rciikWXpVZR0L5w_a-4" edge="1">
          <mxGeometry relative="1" as="geometry" />
        </mxCell>
        <mxCell id="lT_rciikWXpVZR0L5w_a-7" value="Mountain&amp;nbsp;" style="whiteSpace=wrap;html=1;" parent="1" vertex="1">
          <mxGeometry x="540" y="100" width="120" height="50" as="geometry" />
        </mxCell>
        <mxCell id="lT_rciikWXpVZR0L5w_a-10" style="edgeStyle=orthogonalEdgeStyle;rounded=0;orthogonalLoop=1;jettySize=auto;html=1;entryX=1;entryY=0.5;entryDx=0;entryDy=0;curved=1;" parent="1" source="lT_rciikWXpVZR0L5w_a-8" target="lT_rciikWXpVZR0L5w_a-3" edge="1">
          <mxGeometry relative="1" as="geometry" />
        </mxCell>
        <mxCell id="lT_rciikWXpVZR0L5w_a-8" value="&lt;span&gt;tabletop style- can walk up it in about an hour. Flat top&amp;nbsp;&lt;/span&gt;" style="whiteSpace=wrap;html=1;" parent="1" vertex="1">
          <mxGeometry x="707" y="90" width="120" height="60" as="geometry" />
        </mxCell>
        <mxCell id="lT_rciikWXpVZR0L5w_a-16" style="edgeStyle=orthogonalEdgeStyle;curved=1;rounded=0;orthogonalLoop=1;jettySize=auto;html=1;exitX=0.5;exitY=1;exitDx=0;exitDy=0;" parent="1" source="lT_rciikWXpVZR0L5w_a-9" target="lT_rciikWXpVZR0L5w_a-15" edge="1">
          <mxGeometry relative="1" as="geometry" />
        </mxCell>
        <mxCell id="lT_rciikWXpVZR0L5w_a-9" value="&lt;span&gt;Mist, wind makes a howling sound at the slightest breeze&lt;/span&gt;" style="whiteSpace=wrap;html=1;" parent="1" vertex="1">
          <mxGeometry x="707" y="190" width="120" height="60" as="geometry" />
        </mxCell>
        <mxCell id="lT_rciikWXpVZR0L5w_a-15" value="Turns out Dwarfs that live there paid a wizard to make it always foggy and spooky" style="whiteSpace=wrap;html=1;" parent="1" vertex="1">
          <mxGeometry x="750" y="310" width="220" height="120" as="geometry" />
        </mxCell>
        <mxCell id="lT_rciikWXpVZR0L5w_a-29" style="edgeStyle=orthogonalEdgeStyle;curved=1;rounded=0;orthogonalLoop=1;jettySize=auto;html=1;exitX=1;exitY=0.5;exitDx=0;exitDy=0;entryX=0;entryY=0.5;entryDx=0;entryDy=0;" parent="1" source="lT_rciikWXpVZR0L5w_a-17" target="lT_rciikWXpVZR0L5w_a-33" edge="1">
          <mxGeometry relative="1" as="geometry">
            <mxPoint x="960" y="-80" as="targetPoint" />
          </mxGeometry>
        </mxCell>
        <mxCell id="lT_rciikWXpVZR0L5w_a-34" style="edgeStyle=orthogonalEdgeStyle;curved=1;rounded=0;orthogonalLoop=1;jettySize=auto;html=1;exitX=0.5;exitY=1;exitDx=0;exitDy=0;entryX=0;entryY=0.5;entryDx=0;entryDy=0;" parent="1" source="lT_rciikWXpVZR0L5w_a-17" target="lT_rciikWXpVZR0L5w_a-32" edge="1">
          <mxGeometry relative="1" as="geometry" />
        </mxCell>
        <mxCell id="lT_rciikWXpVZR0L5w_a-17" value="Entrance to caves are at these piles. Wind flows through the network of tunnels, helping make the howling noise" style="whiteSpace=wrap;html=1;" parent="1" vertex="1">
          <mxGeometry x="730" y="-140" width="180" height="120" as="geometry" />
        </mxCell>
        <mxCell id="lT_rciikWXpVZR0L5w_a-19" value="&lt;span&gt;&amp;nbsp;Dwarfs who live there arranged the rocks to catch the airflow and tunnel it to make it howl as a tourist-deterrent&lt;/span&gt;" style="whiteSpace=wrap;html=1;" parent="1" vertex="1">
          <mxGeometry x="890" y="160" width="160" height="90" as="geometry" />
        </mxCell>
        <mxCell id="BI6YwM43zffdEftrSmB3-3" style="edgeStyle=orthogonalEdgeStyle;rounded=0;orthogonalLoop=1;jettySize=auto;html=1;exitX=0.5;exitY=1;exitDx=0;exitDy=0;entryX=0.5;entryY=0;entryDx=0;entryDy=0;" parent="1" source="lT_rciikWXpVZR0L5w_a-22" target="lT_rciikWXpVZR0L5w_a-3" edge="1">
          <mxGeometry relative="1" as="geometry" />
        </mxCell>
        <mxCell id="lT_rciikWXpVZR0L5w_a-22" value="While PCs exploring - Attacked by a few wolves!" style="shape=hexagon;perimeter=hexagonPerimeter2;whiteSpace=wrap;html=1;fixedSize=1;fillColor=#fff2cc;strokeColor=#d6b656;" parent="1" vertex="1">
          <mxGeometry x="510" y="-150" width="120" height="80" as="geometry" />
        </mxCell>
        <mxCell id="lT_rciikWXpVZR0L5w_a-26" value="&lt;span style=&quot;color: rgb(0, 0, 0); font-family: helvetica; font-size: 12px; font-style: normal; font-weight: 400; letter-spacing: normal; text-align: center; text-indent: 0px; text-transform: none; word-spacing: 0px; background-color: rgb(248, 249, 250); display: inline; float: none;&quot;&gt;Red Herring...or potentially some clues in here&lt;/span&gt;" style="ellipse;shape=cloud;whiteSpace=wrap;html=1;fillColor=#fff2cc;strokeColor=#d6b656;" parent="1" vertex="1">
          <mxGeometry x="480" y="320" width="165" height="120" as="geometry" />
        </mxCell>
        <mxCell id="lT_rciikWXpVZR0L5w_a-35" style="edgeStyle=orthogonalEdgeStyle;curved=1;rounded=0;orthogonalLoop=1;jettySize=auto;html=1;exitX=0.5;exitY=0;exitDx=0;exitDy=0;entryX=0.5;entryY=1;entryDx=0;entryDy=0;" parent="1" source="lT_rciikWXpVZR0L5w_a-32" target="lT_rciikWXpVZR0L5w_a-33" edge="1">
          <mxGeometry relative="1" as="geometry" />
        </mxCell>
        <mxCell id="lT_rciikWXpVZR0L5w_a-31" value="&lt;span style=&quot;color: rgb(0 , 0 , 0) ; font-family: &amp;#34;helvetica&amp;#34; ; font-size: 12px ; font-style: normal ; font-weight: 400 ; letter-spacing: normal ; text-align: center ; text-indent: 0px ; text-transform: none ; word-spacing: 0px ; background-color: rgb(248 , 249 , 250) ; display: inline ; float: none&quot;&gt;Meet an old warrior who shares the story of a mountain that saw a fierce battle, between an army and a sourcerer. The rumour was that the army was moving a horde of gold to a more secure location when the sourcerer&amp;nbsp;attacked.&lt;/span&gt;&lt;br style=&quot;color: rgb(0 , 0 , 0) ; font-family: &amp;#34;helvetica&amp;#34; ; font-size: 12px ; font-style: normal ; font-weight: 400 ; letter-spacing: normal ; text-align: center ; text-indent: 0px ; text-transform: none ; word-spacing: 0px ; background-color: rgb(248 , 249 , 250)&quot;&gt;&lt;span style=&quot;color: rgb(0 , 0 , 0) ; font-family: &amp;#34;helvetica&amp;#34; ; font-size: 12px ; font-style: normal ; font-weight: 400 ; letter-spacing: normal ; text-align: center ; text-indent: 0px ; text-transform: none ; word-spacing: 0px ; background-color: rgb(248 , 249 , 250) ; display: inline ; float: none&quot;&gt;&amp;nbsp;The sourcerer&amp;nbsp;turned himself into a spirit wolf, and lead a pack of wolves to battle, tearing the army to shreds. However, no matter where the sourcerer&amp;nbsp;looked after, there was no gold or horde to be found.&lt;/span&gt;&lt;br style=&quot;color: rgb(0 , 0 , 0) ; font-family: &amp;#34;helvetica&amp;#34; ; font-size: 12px ; font-style: normal ; font-weight: 400 ; letter-spacing: normal ; text-align: center ; text-indent: 0px ; text-transform: none ; word-spacing: 0px ; background-color: rgb(248 , 249 , 250)&quot;&gt;&lt;br style=&quot;color: rgb(0 , 0 , 0) ; font-family: &amp;#34;helvetica&amp;#34; ; font-size: 12px ; font-style: normal ; font-weight: 400 ; letter-spacing: normal ; text-align: center ; text-indent: 0px ; text-transform: none ; word-spacing: 0px ; background-color: rgb(248 , 249 , 250)&quot;&gt;&lt;span style=&quot;color: rgb(0 , 0 , 0) ; font-family: &amp;#34;helvetica&amp;#34; ; font-size: 12px ; font-style: normal ; font-weight: 400 ; letter-spacing: normal ; text-align: center ; text-indent: 0px ; text-transform: none ; word-spacing: 0px ; background-color: rgb(248 , 249 , 250) ; display: inline ; float: none&quot;&gt;The mountain is now a graveyard... the wind carrying the howls of the lost. Spirits guard the graves of the souls who&#39;s blood was spilt. And some say.... guarding the lost horde&lt;/span&gt;" style="shape=callout;whiteSpace=wrap;html=1;perimeter=calloutPerimeter;" parent="1" vertex="1">
          <mxGeometry x="10" y="70" width="300" height="260" as="geometry" />
        </mxCell>
        <mxCell id="lT_rciikWXpVZR0L5w_a-40" style="edgeStyle=orthogonalEdgeStyle;curved=1;rounded=0;orthogonalLoop=1;jettySize=auto;html=1;exitX=1;exitY=0.5;exitDx=0;exitDy=0;" parent="1" source="lT_rciikWXpVZR0L5w_a-32" edge="1">
          <mxGeometry relative="1" as="geometry">
            <mxPoint x="1120" y="-30" as="targetPoint" />
          </mxGeometry>
        </mxCell>
        <mxCell id="lT_rciikWXpVZR0L5w_a-32" value="Tunnels" style="rounded=0;whiteSpace=wrap;html=1;" parent="1" vertex="1">
          <mxGeometry x="940" y="-30" width="120" height="60" as="geometry" />
        </mxCell>
        <mxCell id="lT_rciikWXpVZR0L5w_a-33" value="PCs find tunnels" style="triangle;whiteSpace=wrap;html=1;" parent="1" vertex="1">
          <mxGeometry x="980" y="-130" width="120" height="80" as="geometry" />
        </mxCell>
        <mxCell id="lT_rciikWXpVZR0L5w_a-45" style="edgeStyle=orthogonalEdgeStyle;curved=1;rounded=0;orthogonalLoop=1;jettySize=auto;html=1;exitX=0.5;exitY=1;exitDx=0;exitDy=0;entryX=0.5;entryY=0;entryDx=0;entryDy=0;entryPerimeter=0;" parent="1" source="lT_rciikWXpVZR0L5w_a-36" target="lT_rciikWXpVZR0L5w_a-37" edge="1">
          <mxGeometry relative="1" as="geometry" />
        </mxCell>
        <mxCell id="lT_rciikWXpVZR0L5w_a-50" style="edgeStyle=orthogonalEdgeStyle;curved=1;rounded=0;orthogonalLoop=1;jettySize=auto;html=1;exitX=0.5;exitY=1;exitDx=0;exitDy=0;entryX=0;entryY=0.5;entryDx=0;entryDy=0;" parent="1" source="lT_rciikWXpVZR0L5w_a-36" target="lT_rciikWXpVZR0L5w_a-49" edge="1">
          <mxGeometry relative="1" as="geometry" />
        </mxCell>
        <mxCell id="lT_rciikWXpVZR0L5w_a-36" value="Dwarf clan home" style="rounded=0;whiteSpace=wrap;html=1;" parent="1" vertex="1">
          <mxGeometry x="1340" y="-60" width="120" height="60" as="geometry" />
        </mxCell>
        <mxCell id="lT_rciikWXpVZR0L5w_a-47" style="edgeStyle=orthogonalEdgeStyle;curved=1;rounded=0;orthogonalLoop=1;jettySize=auto;html=1;exitX=0;exitY=0;exitDx=175;exitDy=245;exitPerimeter=0;entryX=0.32;entryY=0.017;entryDx=0;entryDy=0;entryPerimeter=0;" parent="1" source="lT_rciikWXpVZR0L5w_a-37" target="lT_rciikWXpVZR0L5w_a-46" edge="1">
          <mxGeometry relative="1" as="geometry">
            <Array as="points">
              <mxPoint x="1335" y="350" />
              <mxPoint x="1118" y="350" />
            </Array>
          </mxGeometry>
        </mxCell>
        <mxCell id="lT_rciikWXpVZR0L5w_a-53" style="edgeStyle=orthogonalEdgeStyle;curved=1;rounded=0;orthogonalLoop=1;jettySize=auto;html=1;exitX=0;exitY=0;exitDx=175;exitDy=245;exitPerimeter=0;entryX=0.5;entryY=0;entryDx=0;entryDy=0;" parent="1" source="lT_rciikWXpVZR0L5w_a-37" target="lT_rciikWXpVZR0L5w_a-51" edge="1">
          <mxGeometry relative="1" as="geometry" />
        </mxCell>
        <mxCell id="lT_rciikWXpVZR0L5w_a-37" value="Meet clan leader. Ruben SilkBeard&lt;br&gt;&lt;br&gt;Well, now you&#39;re here, we do actually need some heros/fighters for a job.&lt;br&gt;&lt;br&gt;Story of what really happened in that battle&lt;br&gt;&lt;br&gt;Years ago, a Witch (not Wizard) heard that they were mining gold here, and decided she wanted to take over. Massive battle between the witch and the dwarf clan. Clan won (barely) but didn&#39;t kill her&lt;br&gt;&lt;br&gt;She got away,&amp;nbsp; Managed to bury her demon in a tunnel cave in, then tunnel was sealed. They can still hear noises on the other side....&amp;nbsp;&lt;br&gt;&lt;br&gt;There&#39;s a lot of untapped gold in that cave - pay you handsomely to free it" style="shape=callout;whiteSpace=wrap;html=1;perimeter=calloutPerimeter;" parent="1" vertex="1">
          <mxGeometry x="1090" y="100" width="520" height="245" as="geometry" />
        </mxCell>
        <mxCell id="lT_rciikWXpVZR0L5w_a-39" style="edgeStyle=orthogonalEdgeStyle;curved=1;rounded=0;orthogonalLoop=1;jettySize=auto;html=1;exitX=1;exitY=0.5;exitDx=0;exitDy=0;" parent="1" source="lT_rciikWXpVZR0L5w_a-38" target="lT_rciikWXpVZR0L5w_a-22" edge="1">
          <mxGeometry relative="1" as="geometry" />
        </mxCell>
        <mxCell id="lT_rciikWXpVZR0L5w_a-38" value="Turns out dwarfs often feed the wolves to keep them in the area. If they want to get in/out of the mountain, they would taint the meat with a sedative, but mostly these days the wolves know them as &#39;nice people that feed them&#39; and leave them be" style="rounded=0;whiteSpace=wrap;html=1;" parent="1" vertex="1">
          <mxGeometry x="230" y="-200" width="230" height="120" as="geometry" />
        </mxCell>
        <mxCell id="lT_rciikWXpVZR0L5w_a-42" style="edgeStyle=orthogonalEdgeStyle;curved=1;rounded=0;orthogonalLoop=1;jettySize=auto;html=1;exitX=0.96;exitY=0.7;exitDx=0;exitDy=0;exitPerimeter=0;entryX=0;entryY=0.25;entryDx=0;entryDy=0;" parent="1" source="lT_rciikWXpVZR0L5w_a-41" target="lT_rciikWXpVZR0L5w_a-36" edge="1">
          <mxGeometry relative="1" as="geometry" />
        </mxCell>
        <mxCell id="lT_rciikWXpVZR0L5w_a-44" style="edgeStyle=orthogonalEdgeStyle;curved=1;rounded=0;orthogonalLoop=1;jettySize=auto;html=1;exitX=0.4;exitY=0.1;exitDx=0;exitDy=0;exitPerimeter=0;entryX=0.96;entryY=0.7;entryDx=0;entryDy=0;entryPerimeter=0;" parent="1" source="lT_rciikWXpVZR0L5w_a-41" target="lT_rciikWXpVZR0L5w_a-43" edge="1">
          <mxGeometry relative="1" as="geometry" />
        </mxCell>
        <mxCell id="lT_rciikWXpVZR0L5w_a-41" value="&lt;span style=&quot;color: rgb(0 , 0 , 0) ; font-family: &amp;#34;helvetica&amp;#34; ; font-size: 12px ; font-style: normal ; font-weight: 400 ; letter-spacing: normal ; text-align: center ; text-indent: 0px ; text-transform: none ; word-spacing: 0px ; background-color: rgb(248 , 249 , 250) ; display: inline ; float: none&quot;&gt;Puzzle of some sort to get in a main door&lt;/span&gt;" style="ellipse;shape=cloud;whiteSpace=wrap;html=1;fillColor=#fff2cc;strokeColor=#d6b656;" parent="1" vertex="1">
          <mxGeometry x="1110" y="-90" width="165" height="120" as="geometry" />
        </mxCell>
        <mxCell id="lT_rciikWXpVZR0L5w_a-43" value="&lt;span style=&quot;color: rgb(36 , 37 , 39) ; font-family: &amp;#34;roboto&amp;#34; , &amp;#34;helvetica&amp;#34; , sans-serif ; font-size: 14px ; text-align: left ; background-color: rgb(255 , 255 , 255)&quot;&gt;Large stone door, no handle or hinges and be seen. Its large and heavy and can not be moved by force. Beside it the inscription, &quot;Do not knock the door.&quot; If the party does anything physical to the door a Pseudopod of stone smacks the person that hit the door for 1d4 bludgeoning damage (just meant to be irritating, not deadly.) The only way to open the door is to complement the door, which will open with a thank you. This is a play on words since &quot;Knock&quot; is another old term for insult.&amp;nbsp;&lt;/span&gt;" style="ellipse;shape=cloud;whiteSpace=wrap;html=1;direction=south;fillColor=#fff2cc;strokeColor=#d6b656;" parent="1" vertex="1">
          <mxGeometry x="980" y="-390" width="550" height="240" as="geometry" />
        </mxCell>
        <mxCell id="lT_rciikWXpVZR0L5w_a-46" value="Reward of x gold pieces each, as this will make a new vein of gold accessible (check with Sam on how much he&#39;s happy for the team to have" style="whiteSpace=wrap;html=1;" parent="1" vertex="1">
          <mxGeometry x="1070" y="370" width="150" height="120" as="geometry" />
        </mxCell>
        <mxCell id="lT_rciikWXpVZR0L5w_a-49" value="long rest break avail here" style="whiteSpace=wrap;html=1;" parent="1" vertex="1">
          <mxGeometry x="1480" y="20" width="120" height="60" as="geometry" />
        </mxCell>
        <mxCell id="lT_rciikWXpVZR0L5w_a-54" style="edgeStyle=orthogonalEdgeStyle;curved=1;rounded=0;orthogonalLoop=1;jettySize=auto;html=1;exitX=0.5;exitY=1;exitDx=0;exitDy=0;entryX=0.5;entryY=0;entryDx=0;entryDy=0;" parent="1" source="lT_rciikWXpVZR0L5w_a-51" target="lT_rciikWXpVZR0L5w_a-52" edge="1">
          <mxGeometry relative="1" as="geometry" />
        </mxCell>
        <mxCell id="lT_rciikWXpVZR0L5w_a-51" value="Lead to a set of &#39;air lock&#39; style seal doors. Dwarfs open the first door, explain how to open the second door, then lock PCs in" style="whiteSpace=wrap;html=1;" parent="1" vertex="1">
          <mxGeometry x="1270" y="410" width="230" height="100" as="geometry" />
        </mxCell>
        <mxCell id="BI6YwM43zffdEftrSmB3-7" style="edgeStyle=orthogonalEdgeStyle;rounded=0;orthogonalLoop=1;jettySize=auto;html=1;exitX=0;exitY=0.5;exitDx=0;exitDy=0;" parent="1" source="lT_rciikWXpVZR0L5w_a-52" target="BI6YwM43zffdEftrSmB3-6" edge="1">
          <mxGeometry relative="1" as="geometry">
            <Array as="points">
              <mxPoint x="1540" y="570" />
              <mxPoint x="1540" y="405" />
              <mxPoint x="2012" y="405" />
            </Array>
          </mxGeometry>
        </mxCell>
        <mxCell id="25u9K3X81Mbi-f4htGCc-6" style="edgeStyle=orthogonalEdgeStyle;rounded=0;orthogonalLoop=1;jettySize=auto;html=1;exitX=0.5;exitY=1;exitDx=0;exitDy=0;" edge="1" parent="1" source="lT_rciikWXpVZR0L5w_a-52" target="25u9K3X81Mbi-f4htGCc-5">
          <mxGeometry relative="1" as="geometry" />
        </mxCell>
        <mxCell id="lT_rciikWXpVZR0L5w_a-52" value="Battle with ....&amp;nbsp;" style="whiteSpace=wrap;html=1;" parent="1" vertex="1">
          <mxGeometry x="1340" y="540" width="95" height="60" as="geometry" />
        </mxCell>
        <mxCell id="BI6YwM43zffdEftrSmB3-2" style="edgeStyle=orthogonalEdgeStyle;rounded=0;orthogonalLoop=1;jettySize=auto;html=1;exitX=0.5;exitY=1;exitDx=0;exitDy=0;entryX=0.5;entryY=0;entryDx=0;entryDy=0;" parent="1" source="BI6YwM43zffdEftrSmB3-1" target="lT_rciikWXpVZR0L5w_a-22" edge="1">
          <mxGeometry relative="1" as="geometry" />
        </mxCell>
        <mxCell id="BI6YwM43zffdEftrSmB3-1" value="People minus 1-2&lt;br&gt;&lt;br&gt;Wolf AC 13&amp;nbsp;&lt;br&gt;XP 11&lt;br&gt;Speed 40ft&lt;br&gt;&lt;br&gt;Hit 2d4+2" style="rhombus;whiteSpace=wrap;html=1;" parent="1" vertex="1">
          <mxGeometry x="490" y="-330" width="230" height="160" as="geometry" />
        </mxCell>
        <mxCell id="BI6YwM43zffdEftrSmB3-6" value="&lt;div class=&quot;mon-stat-block__header&quot; style=&quot;box-sizing: border-box ; line-height: 1.1 ; font-family: &amp;#34;scala sans offc&amp;#34; , &amp;#34;roboto&amp;#34; , &amp;#34;open sans&amp;#34; , &amp;#34;helvetica&amp;#34; , sans-serif ; font-size: 15px ; background-color: rgb(255 , 255 , 255)&quot;&gt;&lt;div class=&quot;mon-stat-block__name&quot; style=&quot;box-sizing: border-box ; font-weight: 700 ; font-size: 34px ; font-family: &amp;#34;mrseavessmallcaps&amp;#34; , &amp;#34;roboto&amp;#34; , &amp;#34;open sans&amp;#34; , &amp;#34;helvetica&amp;#34; , sans-serif ; color: rgb(130 , 32 , 0)&quot;&gt;&lt;a class=&quot;mon-stat-block__name-link&quot; href=&quot;https://www.dndbeyond.com/monsters/hell-hound&quot; target=&quot;_blank&quot; style=&quot;box-sizing: border-box ; color: rgb(130 , 32 , 0)&quot;&gt;Hell Hound&lt;/a&gt;&lt;/div&gt;&lt;div class=&quot;mon-stat-block__meta&quot; style=&quot;box-sizing: border-box ; font-style: italic ; margin-bottom: 15px&quot;&gt;Medium fiend , lawful evil&lt;/div&gt;&lt;div class=&quot;mon-stat-block__separator&quot; style=&quot;box-sizing: border-box&quot;&gt;&lt;img class=&quot;mon-stat-block__separator-img&quot; alt=&quot;&quot; src=&quot;https://media-waterdeep.cursecdn.com/file-attachments/0/579/stat-block-header-bar.svg&quot; style=&quot;box-sizing: border-box ; max-width: 100% ; min-height: 10px&quot;&gt;&lt;/div&gt;&lt;/div&gt;&lt;div class=&quot;mon-stat-block__attributes&quot; style=&quot;box-sizing: border-box ; font-family: &amp;#34;scala sans offc&amp;#34; , &amp;#34;roboto&amp;#34; , &amp;#34;open sans&amp;#34; , &amp;#34;helvetica&amp;#34; , sans-serif ; font-size: 15px ; background-color: rgb(255 , 255 , 255)&quot;&gt;&lt;div class=&quot;mon-stat-block__attribute&quot; style=&quot;box-sizing: border-box ; margin: 5px 0px ; color: rgb(130 , 32 , 0) ; line-height: 1.2&quot;&gt;&lt;span class=&quot;mon-stat-block__attribute-label&quot; style=&quot;box-sizing: border-box ; font-weight: 700&quot;&gt;Armor Class&lt;/span&gt;&amp;nbsp;&lt;span class=&quot;mon-stat-block__attribute-value&quot; style=&quot;box-sizing: border-box&quot;&gt;&lt;span class=&quot;mon-stat-block__attribute-data-value&quot; style=&quot;box-sizing: border-box&quot;&gt;15&lt;/span&gt;&amp;nbsp;&lt;span class=&quot;mon-stat-block__attribute-data-extra&quot; style=&quot;box-sizing: border-box&quot;&gt;(natural armor)&lt;/span&gt;&lt;/span&gt;&lt;/div&gt;&lt;div class=&quot;mon-stat-block__attribute&quot; style=&quot;box-sizing: border-box ; margin: 5px 0px ; color: rgb(130 , 32 , 0) ; line-height: 1.2&quot;&gt;&lt;span class=&quot;mon-stat-block__attribute-label&quot; style=&quot;box-sizing: border-box ; font-weight: 700&quot;&gt;Hit Points&lt;/span&gt;&amp;nbsp;&lt;span class=&quot;mon-stat-block__attribute-data&quot; style=&quot;box-sizing: border-box&quot;&gt;&lt;span class=&quot;mon-stat-block__attribute-data-value&quot; style=&quot;box-sizing: border-box&quot;&gt;45&lt;/span&gt;&amp;nbsp;&lt;span class=&quot;mon-stat-block__attribute-data-extra&quot; style=&quot;box-sizing: border-box&quot;&gt;&lt;button class=&quot;integrated-dice__container&quot; style=&quot;color: rgb(180 , 60 , 53) ; border-width: 1px ; border-style: solid ; border-color: rgb(180 , 60 , 53) ; border-radius: 4px ; background-color: rgb(255 , 255 , 255) ; font-size: 14px ; font-weight: 600 ; font-family: &amp;#34;roboto condensed&amp;#34; , &amp;#34;open sans&amp;#34; , &amp;#34;helvetica&amp;#34; , sans-serif ; line-height: 18px ; letter-spacing: 1px ; padding-right: 4px ; padding-bottom: 0px ; padding-left: 4px&quot;&gt;(7d8 + 14)&lt;/button&gt;&lt;/span&gt;&lt;/span&gt;&lt;/div&gt;&lt;div class=&quot;mon-stat-block__attribute&quot; style=&quot;box-sizing: border-box ; margin: 5px 0px ; color: rgb(130 , 32 , 0) ; line-height: 1.2&quot;&gt;&lt;span class=&quot;mon-stat-block__attribute-label&quot; style=&quot;box-sizing: border-box ; font-weight: 700&quot;&gt;Speed&lt;/span&gt;&amp;nbsp;&lt;span class=&quot;mon-stat-block__attribute-data&quot; style=&quot;box-sizing: border-box&quot;&gt;50 ft.&lt;/span&gt;&lt;/div&gt;&lt;/div&gt;&lt;div class=&quot;mon-stat-block__stat-block&quot; style=&quot;box-sizing: border-box ; font-family: &amp;#34;scala sans offc&amp;#34; , &amp;#34;roboto&amp;#34; , &amp;#34;open sans&amp;#34; , &amp;#34;helvetica&amp;#34; , sans-serif ; font-size: 15px ; background-color: rgb(255 , 255 , 255)&quot;&gt;&lt;div class=&quot;mon-stat-block__separator&quot; style=&quot;box-sizing: border-box&quot;&gt;&lt;img class=&quot;mon-stat-block__separator-img&quot; alt=&quot;&quot; src=&quot;https://media-waterdeep.cursecdn.com/file-attachments/0/579/stat-block-header-bar.svg&quot; style=&quot;box-sizing: border-box ; max-width: 100% ; min-height: 10px&quot;&gt;&lt;/div&gt;&lt;div class=&quot;ability-block&quot; style=&quot;box-sizing: border-box ; font-size: 14px ; display: flex ; margin: 0px ; color: rgb(130 , 32 , 0)&quot;&gt;&lt;div class=&quot;ability-block__stat ability-block__stat--str&quot; style=&quot;box-sizing: border-box ; width: 123.552px ; padding: 5px 0px ; text-align: center&quot;&gt;&lt;div class=&quot;ability-block__heading&quot; style=&quot;box-sizing: border-box ; font-weight: 700&quot;&gt;STR&lt;/div&gt;&lt;div class=&quot;ability-block__data&quot; style=&quot;box-sizing: border-box ; display: flex ; flex-direction: column ; align-items: center ; justify-content: center&quot;&gt;&lt;span class=&quot;ability-block__score&quot; style=&quot;box-sizing: border-box&quot;&gt;17&lt;/span&gt;&lt;span class=&quot;ability-block__modifier&quot; style=&quot;box-sizing: border-box ; margin-left: 2px&quot;&gt;&lt;button class=&quot;integrated-dice__container&quot; style=&quot;color: rgb(180 , 60 , 53) ; border-width: 1px ; border-style: solid ; border-color: rgb(180 , 60 , 53) ; border-radius: 4px ; background-color: rgb(255 , 255 , 255) ; font-size: 14px ; font-weight: 600 ; font-family: &amp;#34;roboto condensed&amp;#34; , &amp;#34;open sans&amp;#34; , &amp;#34;helvetica&amp;#34; , sans-serif ; line-height: 18px ; letter-spacing: 1px ; padding-right: 4px ; padding-bottom: 0px ; padding-left: 4px&quot;&gt;(+3)&lt;/button&gt;&lt;/span&gt;&lt;/div&gt;&lt;/div&gt;&lt;div class=&quot;ability-block__stat ability-block__stat--dex&quot; style=&quot;box-sizing: border-box ; width: 123.552px ; padding: 5px 0px ; text-align: center&quot;&gt;&lt;div class=&quot;ability-block__heading&quot; style=&quot;box-sizing: border-box ; font-weight: 700&quot;&gt;DEX&lt;/div&gt;&lt;div class=&quot;ability-block__data&quot; style=&quot;box-sizing: border-box ; display: flex ; flex-direction: column ; align-items: center ; justify-content: center&quot;&gt;&lt;span class=&quot;ability-block__score&quot; style=&quot;box-sizing: border-box&quot;&gt;12&lt;/span&gt;&lt;span class=&quot;ability-block__modifier&quot; style=&quot;box-sizing: border-box ; margin-left: 2px&quot;&gt;&lt;button class=&quot;integrated-dice__container&quot; style=&quot;color: rgb(180 , 60 , 53) ; border-width: 1px ; border-style: solid ; border-color: rgb(180 , 60 , 53) ; border-radius: 4px ; background-color: rgb(255 , 255 , 255) ; font-size: 14px ; font-weight: 600 ; font-family: &amp;#34;roboto condensed&amp;#34; , &amp;#34;open sans&amp;#34; , &amp;#34;helvetica&amp;#34; , sans-serif ; line-height: 18px ; letter-spacing: 1px ; padding-right: 4px ; padding-bottom: 0px ; padding-left: 4px&quot;&gt;(+1)&lt;/button&gt;&lt;/span&gt;&lt;/div&gt;&lt;/div&gt;&lt;div class=&quot;ability-block__stat ability-block__stat--con&quot; style=&quot;box-sizing: border-box ; width: 123.552px ; padding: 5px 0px ; text-align: center&quot;&gt;&lt;div class=&quot;ability-block__heading&quot; style=&quot;box-sizing: border-box ; font-weight: 700&quot;&gt;CON&lt;/div&gt;&lt;div class=&quot;ability-block__data&quot; style=&quot;box-sizing: border-box ; display: flex ; flex-direction: column ; align-items: center ; justify-content: center&quot;&gt;&lt;span class=&quot;ability-block__score&quot; style=&quot;box-sizing: border-box&quot;&gt;14&lt;/span&gt;&lt;span class=&quot;ability-block__modifier&quot; style=&quot;box-sizing: border-box ; margin-left: 2px&quot;&gt;&lt;button class=&quot;integrated-dice__container&quot; style=&quot;color: rgb(180 , 60 , 53) ; border-width: 1px ; border-style: solid ; border-color: rgb(180 , 60 , 53) ; border-radius: 4px ; background-color: rgb(255 , 255 , 255) ; font-size: 14px ; font-weight: 600 ; font-family: &amp;#34;roboto condensed&amp;#34; , &amp;#34;open sans&amp;#34; , &amp;#34;helvetica&amp;#34; , sans-serif ; line-height: 18px ; letter-spacing: 1px ; padding-right: 4px ; padding-bottom: 0px ; padding-left: 4px&quot;&gt;(+2)&lt;/button&gt;&lt;/span&gt;&lt;/div&gt;&lt;/div&gt;&lt;div class=&quot;ability-block__stat ability-block__stat--int&quot; style=&quot;box-sizing: border-box ; width: 123.552px ; padding: 5px 0px ; text-align: center&quot;&gt;&lt;div class=&quot;ability-block__heading&quot; style=&quot;box-sizing: border-box ; font-weight: 700&quot;&gt;INT&lt;/div&gt;&lt;div class=&quot;ability-block__data&quot; style=&quot;box-sizing: border-box ; display: flex ; flex-direction: column ; align-items: center ; justify-content: center&quot;&gt;&lt;span class=&quot;ability-block__score&quot; style=&quot;box-sizing: border-box&quot;&gt;6&lt;/span&gt;&lt;span class=&quot;ability-block__modifier&quot; style=&quot;box-sizing: border-box ; margin-left: 2px&quot;&gt;&lt;button class=&quot;integrated-dice__container&quot; style=&quot;color: rgb(180 , 60 , 53) ; border-width: 1px ; border-style: solid ; border-color: rgb(180 , 60 , 53) ; border-radius: 4px ; background-color: rgb(255 , 255 , 255) ; font-size: 14px ; font-weight: 600 ; font-family: &amp;#34;roboto condensed&amp;#34; , &amp;#34;open sans&amp;#34; , &amp;#34;helvetica&amp;#34; , sans-serif ; line-height: 18px ; letter-spacing: 1px ; padding-right: 4px ; padding-bottom: 0px ; padding-left: 4px&quot;&gt;(-2)&lt;/button&gt;&lt;/span&gt;&lt;/div&gt;&lt;/div&gt;&lt;div class=&quot;ability-block__stat ability-block__stat--wis&quot; style=&quot;box-sizing: border-box ; width: 123.552px ; padding: 5px 0px ; text-align: center&quot;&gt;&lt;div class=&quot;ability-block__heading&quot; style=&quot;box-sizing: border-box ; font-weight: 700&quot;&gt;WIS&lt;/div&gt;&lt;div class=&quot;ability-block__data&quot; style=&quot;box-sizing: border-box ; display: flex ; flex-direction: column ; align-items: center ; justify-content: center&quot;&gt;&lt;span class=&quot;ability-block__score&quot; style=&quot;box-sizing: border-box&quot;&gt;13&lt;/span&gt;&lt;span class=&quot;ability-block__modifier&quot; style=&quot;box-sizing: border-box ; margin-left: 2px&quot;&gt;&lt;button class=&quot;integrated-dice__container&quot; style=&quot;color: rgb(180 , 60 , 53) ; border-width: 1px ; border-style: solid ; border-color: rgb(180 , 60 , 53) ; border-radius: 4px ; background-color: rgb(255 , 255 , 255) ; font-size: 14px ; font-weight: 600 ; font-family: &amp;#34;roboto condensed&amp;#34; , &amp;#34;open sans&amp;#34; , &amp;#34;helvetica&amp;#34; , sans-serif ; line-height: 18px ; letter-spacing: 1px ; padding-right: 4px ; padding-bottom: 0px ; padding-left: 4px&quot;&gt;(+1)&lt;/button&gt;&lt;/span&gt;&lt;/div&gt;&lt;/div&gt;&lt;div class=&quot;ability-block__stat ability-block__stat--cha&quot; style=&quot;box-sizing: border-box ; width: 123.552px ; padding: 5px 0px ; text-align: center&quot;&gt;&lt;div class=&quot;ability-block__heading&quot; style=&quot;box-sizing: border-box ; font-weight: 700&quot;&gt;CHA&lt;/div&gt;&lt;div class=&quot;ability-block__data&quot; style=&quot;box-sizing: border-box ; display: flex ; flex-direction: column ; align-items: center ; justify-content: center&quot;&gt;&lt;span class=&quot;ability-block__score&quot; style=&quot;box-sizing: border-box&quot;&gt;6&lt;/span&gt;&lt;span class=&quot;ability-block__modifier&quot; style=&quot;box-sizing: border-box ; margin-left: 2px&quot;&gt;&lt;button class=&quot;integrated-dice__container&quot; style=&quot;color: rgb(180 , 60 , 53) ; border-width: 1px ; border-style: solid ; border-color: rgb(180 , 60 , 53) ; border-radius: 4px ; background-color: rgb(255 , 255 , 255) ; font-size: 14px ; font-weight: 600 ; font-family: &amp;#34;roboto condensed&amp;#34; , &amp;#34;open sans&amp;#34; , &amp;#34;helvetica&amp;#34; , sans-serif ; line-height: 18px ; letter-spacing: 1px ; padding-right: 4px ; padding-bottom: 0px ; padding-left: 4px&quot;&gt;(-2)&lt;/button&gt;&lt;/span&gt;&lt;/div&gt;&lt;/div&gt;&lt;/div&gt;&lt;div class=&quot;mon-stat-block__separator&quot; style=&quot;box-sizing: border-box&quot;&gt;&lt;img class=&quot;mon-stat-block__separator-img&quot; alt=&quot;&quot; src=&quot;https://media-waterdeep.cursecdn.com/file-attachments/0/579/stat-block-header-bar.svg&quot; style=&quot;box-sizing: border-box ; max-width: 100% ; min-height: 10px&quot;&gt;&lt;/div&gt;&lt;/div&gt;&lt;div class=&quot;mon-stat-block__tidbits&quot; style=&quot;box-sizing: border-box ; font-family: &amp;#34;scala sans offc&amp;#34; , &amp;#34;roboto&amp;#34; , &amp;#34;open sans&amp;#34; , &amp;#34;helvetica&amp;#34; , sans-serif ; font-size: 15px ; background-color: rgb(255 , 255 , 255)&quot;&gt;&lt;div class=&quot;mon-stat-block__tidbit&quot; style=&quot;box-sizing: border-box ; margin: 5px 0px ; color: rgb(130 , 32 , 0) ; line-height: 1.2&quot;&gt;&lt;span class=&quot;mon-stat-block__tidbit-label&quot; style=&quot;box-sizing: border-box ; font-weight: 700&quot;&gt;Skills&lt;/span&gt;&amp;nbsp;&lt;span class=&quot;mon-stat-block__tidbit-data&quot; style=&quot;box-sizing: border-box&quot;&gt;&lt;a class=&quot;tooltip-hover skill-tooltip&quot; href=&quot;https://www.dndbeyond.com/compendium/rules/basic-rules/using-ability-scores#Perception&quot; style=&quot;box-sizing: border-box ; font-weight: inherit&quot;&gt;Perception&lt;/a&gt;&amp;nbsp;&lt;button class=&quot;integrated-dice__container&quot; style=&quot;color: rgb(180 , 60 , 53) ; border-width: 1px ; border-style: solid ; border-color: rgb(180 , 60 , 53) ; border-radius: 4px ; background-color: rgb(255 , 255 , 255) ; font-size: 14px ; font-weight: 600 ; font-family: &amp;#34;roboto condensed&amp;#34; , &amp;#34;open sans&amp;#34; , &amp;#34;helvetica&amp;#34; , sans-serif ; line-height: 18px ; letter-spacing: 1px ; padding-right: 4px ; padding-bottom: 0px ; padding-left: 4px&quot;&gt;+5&lt;/button&gt;&lt;/span&gt;&lt;/div&gt;&lt;div class=&quot;mon-stat-block__tidbit&quot; style=&quot;box-sizing: border-box ; margin: 5px 0px ; color: rgb(130 , 32 , 0) ; line-height: 1.2&quot;&gt;&lt;span class=&quot;mon-stat-block__tidbit-label&quot; style=&quot;box-sizing: border-box ; font-weight: 700&quot;&gt;Damage Immunities&lt;/span&gt;&amp;nbsp;&lt;span class=&quot;mon-stat-block__tidbit-data&quot; style=&quot;box-sizing: border-box&quot;&gt;Fire&lt;/span&gt;&lt;/div&gt;&lt;div class=&quot;mon-stat-block__tidbit&quot; style=&quot;box-sizing: border-box ; margin: 5px 0px ; color: rgb(130 , 32 , 0) ; line-height: 1.2&quot;&gt;&lt;span class=&quot;mon-stat-block__tidbit-label&quot; style=&quot;box-sizing: border-box ; font-weight: 700&quot;&gt;Senses&lt;/span&gt;&amp;nbsp;&lt;span class=&quot;mon-stat-block__tidbit-data&quot; style=&quot;box-sizing: border-box&quot;&gt;&lt;a class=&quot;tooltip-hover sense-tooltip&quot; href=&quot;https://www.dndbeyond.com/compendium/rules/basic-rules/monsters#Darkvision&quot; style=&quot;box-sizing: border-box ; font-weight: inherit&quot;&gt;Darkvision&lt;/a&gt;&amp;nbsp;60 ft.&lt;/span&gt;&lt;/div&gt;&lt;div class=&quot;mon-stat-block__tidbit&quot; style=&quot;box-sizing: border-box ; margin: 5px 0px ; color: rgb(130 , 32 , 0) ; line-height: 1.2&quot;&gt;&lt;span class=&quot;mon-stat-block__tidbit-label&quot; style=&quot;box-sizing: border-box ; font-weight: 700&quot;&gt;Languages&lt;/span&gt;&amp;nbsp;&lt;span class=&quot;mon-stat-block__tidbit-data&quot; style=&quot;box-sizing: border-box&quot;&gt;Understands Infernal but can&#39;t speak it&lt;/span&gt;&lt;/div&gt;&lt;div class=&quot;mon-stat-block__tidbit-container&quot; style=&quot;box-sizing: border-box ; display: flex&quot;&gt;&lt;div class=&quot;mon-stat-block__tidbit&quot; style=&quot;box-sizing: border-box ; margin: 5px 0px ; color: rgb(130 , 32 , 0) ; line-height: 1.2&quot;&gt;&lt;span class=&quot;mon-stat-block__tidbit-label&quot; style=&quot;box-sizing: border-box ; font-weight: 700&quot;&gt;Challenge&lt;/span&gt;&amp;nbsp;&lt;span class=&quot;mon-stat-block__tidbit-data&quot; style=&quot;box-sizing: border-box&quot;&gt;3&amp;nbsp;(700&amp;nbsp;XP)&lt;/span&gt;&lt;/div&gt;&lt;div class=&quot;mon-stat-block__tidbit-spacer&quot; style=&quot;box-sizing: border-box ; width: 40px ; min-width: 10px&quot;&gt;&lt;/div&gt;&lt;div class=&quot;mon-stat-block__tidbit&quot; style=&quot;box-sizing: border-box ; margin: 5px 0px ; color: rgb(130 , 32 , 0) ; line-height: 1.2&quot;&gt;&lt;span class=&quot;mon-stat-block__tidbit-label&quot; style=&quot;box-sizing: border-box ; font-weight: 700&quot;&gt;Proficiency Bonus&lt;/span&gt;&amp;nbsp;&lt;span class=&quot;mon-stat-block__tidbit-data&quot; style=&quot;box-sizing: border-box&quot;&gt;+2&lt;/span&gt;&lt;/div&gt;&lt;/div&gt;&lt;/div&gt;&lt;div class=&quot;mon-stat-block__separator&quot; style=&quot;box-sizing: border-box ; font-family: &amp;#34;scala sans offc&amp;#34; , &amp;#34;roboto&amp;#34; , &amp;#34;open sans&amp;#34; , &amp;#34;helvetica&amp;#34; , sans-serif ; font-size: 15px ; background-color: rgb(255 , 255 , 255)&quot;&gt;&lt;img class=&quot;mon-stat-block__separator-img&quot; alt=&quot;&quot; src=&quot;https://media-waterdeep.cursecdn.com/file-attachments/0/579/stat-block-header-bar.svg&quot; style=&quot;box-sizing: border-box ; max-width: 100% ; min-height: 10px&quot;&gt;&lt;/div&gt;&lt;div class=&quot;mon-stat-block__description-blocks&quot; style=&quot;box-sizing: border-box ; margin-top: 20px ; font-family: &amp;#34;scala sans offc&amp;#34; , &amp;#34;roboto&amp;#34; , &amp;#34;open sans&amp;#34; , &amp;#34;helvetica&amp;#34; , sans-serif ; font-size: 15px ; background-color: rgb(255 , 255 , 255)&quot;&gt;&lt;div class=&quot;mon-stat-block__description-block&quot; style=&quot;box-sizing: border-box&quot;&gt;&lt;div class=&quot;mon-stat-block__description-block-content&quot; style=&quot;box-sizing: border-box&quot;&gt;&lt;p style=&quot;box-sizing: border-box ; margin-bottom: 10px&quot;&gt;&lt;em style=&quot;box-sizing: border-box&quot;&gt;&lt;strong style=&quot;box-sizing: border-box&quot;&gt;Keen Hearing and Smell.&lt;/strong&gt;&lt;/em&gt;&amp;nbsp;The hound has advantage on Wisdom (&lt;a class=&quot;tooltip-hover skill-tooltip&quot; href=&quot;https://www.dndbeyond.com/compendium/rules/basic-rules/using-ability-scores#Perception&quot; style=&quot;box-sizing: border-box ; font-weight: inherit&quot;&gt;Perception&lt;/a&gt;) checks that rely on hearing or smell.&lt;/p&gt;&lt;p style=&quot;box-sizing: border-box ; margin-bottom: 10px&quot;&gt;&lt;em style=&quot;box-sizing: border-box&quot;&gt;&lt;strong style=&quot;box-sizing: border-box&quot;&gt;Pack Tactics.&lt;/strong&gt;&lt;/em&gt;&amp;nbsp;The hound has advantage on an attack roll against a creature if at least one of the hound&#39;s allies is within 5 feet of the creature and the ally isn&#39;t&amp;nbsp;&lt;a class=&quot;tooltip-hover condition-tooltip&quot; href=&quot;https://www.dndbeyond.com/compendium/rules/basic-rules/appendix-a-conditions#Incapacitated&quot; style=&quot;box-sizing: border-box ; font-weight: inherit&quot;&gt;incapacitated&lt;/a&gt;.&lt;/p&gt;&lt;/div&gt;&lt;/div&gt;&lt;div class=&quot;mon-stat-block__description-block&quot; style=&quot;box-sizing: border-box&quot;&gt;&lt;div class=&quot;mon-stat-block__description-block-heading&quot; style=&quot;box-sizing: border-box ; border-bottom: 1px solid rgb(130 , 32 , 0) ; color: rgb(130 , 32 , 0) ; font-size: 24px ; line-height: 1.4 ; margin-top: 20px ; margin-bottom: 15px&quot;&gt;Actions&lt;/div&gt;&lt;div class=&quot;mon-stat-block__description-block-content&quot; style=&quot;box-sizing: border-box&quot;&gt;&lt;p style=&quot;box-sizing: border-box ; margin-bottom: 10px&quot;&gt;&lt;em style=&quot;box-sizing: border-box&quot;&gt;&lt;strong style=&quot;box-sizing: border-box&quot;&gt;Bite.&lt;/strong&gt;&amp;nbsp;Melee Weapon Attack:&lt;/em&gt;&amp;nbsp;&lt;button class=&quot;integrated-dice__container&quot; style=&quot;color: rgb(180 , 60 , 53) ; border-width: 1px ; border-style: solid ; border-color: rgb(180 , 60 , 53) ; border-radius: 4px ; background-color: rgb(255 , 255 , 255) ; font-size: 14px ; font-weight: 600 ; font-family: &amp;#34;roboto condensed&amp;#34; , &amp;#34;open sans&amp;#34; , &amp;#34;helvetica&amp;#34; , sans-serif ; line-height: 18px ; letter-spacing: 1px ; padding-right: 4px ; padding-bottom: 0px ; padding-left: 4px&quot;&gt;+5&lt;/button&gt;&amp;nbsp;to hit, reach 5 ft., one target.&amp;nbsp;&lt;em style=&quot;box-sizing: border-box&quot;&gt;Hit:&lt;/em&gt;&amp;nbsp;7&amp;nbsp;&lt;button class=&quot;integrated-dice__container&quot; style=&quot;color: rgb(180 , 60 , 53) ; border-width: 1px ; border-style: solid ; border-color: rgb(180 , 60 , 53) ; border-radius: 4px ; background-color: rgb(255 , 255 , 255) ; font-size: 14px ; font-weight: 600 ; font-family: &amp;#34;roboto condensed&amp;#34; , &amp;#34;open sans&amp;#34; , &amp;#34;helvetica&amp;#34; , sans-serif ; line-height: 18px ; letter-spacing: 1px ; padding-right: 4px ; padding-bottom: 0px ; padding-left: 4px&quot;&gt;(1d8 + 3)&lt;/button&gt;&amp;nbsp;piercing damage plus 7&amp;nbsp;&lt;button class=&quot;integrated-dice__container&quot; style=&quot;color: rgb(180 , 60 , 53) ; border-width: 1px ; border-style: solid ; border-color: rgb(180 , 60 , 53) ; border-radius: 4px ; background-color: rgb(255 , 255 , 255) ; font-size: 14px ; font-weight: 600 ; font-family: &amp;#34;roboto condensed&amp;#34; , &amp;#34;open sans&amp;#34; , &amp;#34;helvetica&amp;#34; , sans-serif ; line-height: 18px ; letter-spacing: 1px ; padding-right: 4px ; padding-bottom: 0px ; padding-left: 4px&quot;&gt;(2d6)&lt;/button&gt;&amp;nbsp;fire damage.&lt;/p&gt;&lt;p style=&quot;box-sizing: border-box ; margin-bottom: 10px&quot;&gt;&lt;em style=&quot;box-sizing: border-box&quot;&gt;&lt;strong style=&quot;box-sizing: border-box&quot;&gt;Fire Breath&amp;nbsp;&lt;button class=&quot;integrated-dice__container&quot; style=&quot;color: rgb(180 , 60 , 53) ; border-width: 1px ; border-style: solid ; border-color: rgb(180 , 60 , 53) ; border-radius: 4px ; background-color: rgb(255 , 255 , 255) ; font-size: 14px ; font-weight: 600 ; font-family: &amp;#34;roboto condensed&amp;#34; , &amp;#34;open sans&amp;#34; , &amp;#34;helvetica&amp;#34; , sans-serif ; line-height: 18px ; letter-spacing: 1px ; padding-right: 4px ; padding-bottom: 0px ; padding-left: 4px&quot;&gt;(Recharge 5–6)&lt;/button&gt;.&lt;/strong&gt;&lt;/em&gt;&amp;nbsp;The hound exhales fire in a 15-foot cone. Each creature in that area must make a DC 12 Dexterity saving throw, taking 21&amp;nbsp;&lt;button class=&quot;integrated-dice__container&quot; style=&quot;color: rgb(180 , 60 , 53) ; border-width: 1px ; border-style: solid ; border-color: rgb(180 , 60 , 53) ; border-radius: 4px ; background-color: rgb(255 , 255 , 255) ; font-size: 14px ; font-weight: 600 ; font-family: &amp;#34;roboto condensed&amp;#34; , &amp;#34;open sans&amp;#34; , &amp;#34;helvetica&amp;#34; , sans-serif ; line-height: 18px ; letter-spacing: 1px ; padding-right: 4px ; padding-bottom: 0px ; padding-left: 4px&quot;&gt;(6d6)&lt;/button&gt;&amp;nbsp;fire damage on a failed save, or half as much damage on a successful one.&lt;/p&gt;&lt;/div&gt;&lt;/div&gt;&lt;/div&gt;" style="ellipse;whiteSpace=wrap;html=1;" parent="1" vertex="1">
          <mxGeometry x="1900" y="200" width="215" height="130" as="geometry" />
        </mxCell>
        <mxCell id="25u9K3X81Mbi-f4htGCc-2" style="edgeStyle=orthogonalEdgeStyle;rounded=0;orthogonalLoop=1;jettySize=auto;html=1;exitX=0.5;exitY=1;exitDx=0;exitDy=0;entryX=0.5;entryY=0;entryDx=0;entryDy=0;entryPerimeter=0;" edge="1" parent="1" source="25u9K3X81Mbi-f4htGCc-1" target="lT_rciikWXpVZR0L5w_a-31">
          <mxGeometry relative="1" as="geometry" />
        </mxCell>
        <mxCell id="25u9K3X81Mbi-f4htGCc-1" value="Name of Traveller- Olivander Stone" style="whiteSpace=wrap;html=1;aspect=fixed;" vertex="1" parent="1">
          <mxGeometry x="30" y="-60" width="80" height="80" as="geometry" />
        </mxCell>
        <mxCell id="25u9K3X81Mbi-f4htGCc-5" value="Win yay! Dwarfs offer you a place to rest and recoop. Time to head back to Salt Marsh to pick up Sun and decide what do to" style="rounded=0;whiteSpace=wrap;html=1;" vertex="1" parent="1">
          <mxGeometry x="1241" y="700" width="249" height="110" as="geometry" />
        </mxCell>
        <mxCell id="25u9K3X81Mbi-f4htGCc-7" value="Sun staying with the people of SaltMarsh as the fates have told her they need spiritual healing" style="rounded=0;whiteSpace=wrap;html=1;" vertex="1" parent="1">
          <mxGeometry x="214" y="320" width="200" height="125" as="geometry" />
        </mxCell>
      </root>
    </mxGraphModel>
  </diagram>
</mxfile>
